<?xml version="1.0" encoding="utf-8"?>
<!-- Generator: Adobe Illustrator 26.3.1, SVG Export Plug-In . SVG Version: 6.00 Build 0)  -->
<svg version="1.1" id="Camada_1" xmlns="http://www.w3.org/2000/svg" xmlns:xlink="http://www.w3.org/1999/xlink" x="0px" y="0px"
	 viewBox="0 0 595.28 841.89" style="enable-background:new 0 0 595.28 841.89;" xml:space="preserve">
<style type="text/css">
	.st0{enable-background:new    ;}
	.st1{clip-path:url(#SVGID_00000047745992101829323120000000922142293752955067_);}
	.st2{fill:#0F8934;}
	.st3{fill:#FFFFFF;}
</style>
<g>
	<g>
		<g class="st0">
			<defs>
				<polygon id="SVGID_1_" class="st0" points="11.24,569.94 162.23,282.79 433.04,282.79 584.03,569.94 				"/>
			</defs>
			<clipPath id="SVGID_00000146492261539920159620000002675993037125835932_">
				<use xlink:href="#SVGID_1_"  style="overflow:visible;"/>
			</clipPath>
			<g style="clip-path:url(#SVGID_00000146492261539920159620000002675993037125835932_);">
				<g>
					<g>
						<g>
							<path class="st2" d="M479.13,375.58H353.46c0.2,4.17-1.36,7.86-4.28,11.05c-2.97,3.25-7.32,5.96-12.59,8.14
								c-5.33,2.21-11.57,3.85-18.23,4.95c-6.7,1.1-13.77,1.65-20.72,1.65c-6.95,0-14.02-0.54-20.72-1.65
								c-6.66-1.1-12.9-2.74-18.23-4.95c-5.27-2.18-9.62-4.89-12.59-8.14c-2.91-3.19-4.48-6.88-4.28-11.05H116.14L17.37,566.23
								h104.39l27.12-83.41h80.17c3-4.23,6.95-8.02,11.65-11.31c4.63-3.24,10.02-6.02,15.96-8.27c5.89-2.23,12.35-3.96,19.23-5.13
								c6.84-1.16,14.13-1.78,21.71-1.78h0.08c7.58,0,14.87,0.61,21.72,1.77c6.88,1.17,13.36,2.89,19.25,5.12
								c5.95,2.25,11.34,5.03,15.98,8.28c4.71,3.29,8.66,7.08,11.66,11.32h80.11l27.12,83.41h104.39L479.13,375.58 M431.4,283.46
								h-49.82l8.13,25.01H340.1c-1.24,1.64-3.18,3.16-5.74,4.51c-2.58,1.36-5.77,2.56-9.46,3.55c-3.71,0.99-7.92,1.78-12.5,2.31
								c-4.59,0.54-9.54,0.82-14.72,0.82h-0.05c-5.18,0-10.13-0.29-14.73-0.82c-4.58-0.53-8.79-1.32-12.51-2.31
								c-3.69-0.99-6.89-2.18-9.47-3.55c-2.56-1.35-4.51-2.87-5.75-4.52h-49.59l8.13-25.01h-49.82l-47.09,90.9h125.16
								c0.86-4.22,3.32-7.79,6.87-10.76c3.5-2.92,8.08-5.28,13.31-7.13c5.17-1.83,10.99-3.16,17.05-4.04
								c6.03-0.87,12.32-1.3,18.46-1.3h0.01c6.15,0,12.44,0.42,18.47,1.3c6.06,0.88,11.89,2.21,17.06,4.04
								c5.23,1.85,9.81,4.21,13.3,7.13c3.56,2.97,6.01,6.53,6.86,10.76h125.15L431.4,283.46"/>
							<polyline class="st3" points="433.04,282.79 162.23,282.79 11.64,569.19 120.8,569.19 121.76,566.23 17.37,566.23 
								116.14,375.58 114.95,375.58 115.27,374.97 115.59,374.35 116.78,374.35 163.88,283.46 213.7,283.46 213.86,282.95 
								255.13,282.95 340.15,282.95 381.42,282.95 381.58,283.46 431.4,283.46 478.49,374.35 479.71,374.35 480.35,375.58 
								479.13,375.58 577.91,566.23 473.52,566.23 474.48,569.19 583.64,569.19 433.04,282.79 							"/>
							<path class="st2" d="M350.75,375.58h-46.22c-0.08,0.21-0.21,0.42-0.38,0.61c-0.17,0.19-0.39,0.38-0.64,0.55
								c-0.26,0.17-0.55,0.33-0.89,0.47c-0.34,0.14-0.71,0.27-1.13,0.38c-0.29,0.08-0.59,0.14-0.89,0.2
								c-0.31,0.06-0.63,0.11-0.95,0.14c-0.32,0.04-0.65,0.07-0.99,0.09c-0.33,0.02-0.67,0.03-1.01,0.03
								c-0.34,0-0.67-0.01-1.01-0.03c-0.33-0.02-0.66-0.05-0.99-0.09c-0.32-0.04-0.64-0.09-0.95-0.14c-0.31-0.06-0.61-0.13-0.9-0.2
								c-0.41-0.11-0.79-0.24-1.12-0.38c-0.34-0.14-0.63-0.3-0.89-0.47c-0.26-0.17-0.47-0.35-0.64-0.55
								c-0.17-0.19-0.3-0.4-0.39-0.61h-46.22c-0.14,3.95,1.38,7.44,4.18,10.46c2.85,3.07,6.99,5.63,12,7.69
								c5.07,2.08,10.99,3.63,17.3,4.67c6.35,1.04,13.05,1.55,19.63,1.55c6.58,0,13.28-0.51,19.62-1.55
								c6.31-1.03,12.23-2.58,17.3-4.66c5.01-2.06,9.16-4.62,12.01-7.69C349.37,383.03,350.89,379.54,350.75,375.58 M297.65,352.2
								c-5.86,0-11.87,0.41-17.62,1.24c-5.78,0.84-11.34,2.12-16.26,3.86c-4.98,1.77-9.34,4.02-12.65,6.8
								c-3.37,2.83-5.68,6.23-6.47,10.24h46.09c0.08-0.22,0.2-0.44,0.38-0.64c0.17-0.2,0.39-0.39,0.66-0.57
								c0.26-0.18,0.57-0.34,0.92-0.49c0.35-0.15,0.74-0.28,1.17-0.39c0.28-0.07,0.58-0.14,0.89-0.2c0.31-0.06,0.62-0.1,0.94-0.14
								c0.32-0.04,0.65-0.07,0.97-0.08c0.33-0.02,0.66-0.03,0.99-0.03s0.66,0.01,0.99,0.03c0.33,0.02,0.65,0.05,0.97,0.08
								c0.32,0.04,0.63,0.08,0.94,0.14c0.3,0.06,0.6,0.12,0.88,0.2c0.43,0.11,0.82,0.24,1.16,0.39c0.35,0.15,0.66,0.31,0.92,0.49
								c0.26,0.18,0.48,0.37,0.66,0.57c0.17,0.2,0.3,0.42,0.38,0.64h46.09c-0.79-4.01-3.1-7.41-6.47-10.24
								c-3.31-2.78-7.67-5.04-12.65-6.8c-4.92-1.75-10.48-3.03-16.26-3.87C309.52,352.61,303.51,352.2,297.65,352.2"/>
							<path class="st3" d="M353.46,375.58h-2.71c0.14,3.96-1.38,7.45-4.18,10.46c-2.85,3.07-7,5.63-12.01,7.69
								c-5.07,2.08-10.99,3.63-17.3,4.66c-6.34,1.04-13.04,1.55-19.62,1.55c-6.58,0-13.28-0.51-19.63-1.55
								c-6.31-1.03-12.23-2.59-17.3-4.67c-5.01-2.06-9.16-4.62-12-7.69c-2.8-3.02-4.32-6.51-4.18-10.46h-2.71
								c-0.2,4.17,1.36,7.86,4.28,11.05c2.97,3.25,7.32,5.96,12.59,8.14c5.33,2.21,11.57,3.85,18.23,4.95
								c6.7,1.1,13.77,1.65,20.72,1.65c6.95,0,14.03-0.54,20.72-1.65c6.66-1.1,12.9-2.74,18.23-4.95c5.27-2.18,9.62-4.89,12.59-8.14
								C352.1,383.44,353.66,379.75,353.46,375.58 M297.65,351.13L297.65,351.13c-6.15,0-12.44,0.42-18.47,1.3
								c-6.06,0.88-11.89,2.21-17.05,4.04c-5.23,1.85-9.81,4.21-13.31,7.13c-3.56,2.97-6.01,6.54-6.87,10.76h2.7
								c0.79-4.02,3.1-7.41,6.47-10.24c3.32-2.78,7.67-5.04,12.65-6.8c4.92-1.75,10.48-3.02,16.26-3.86
								c5.75-0.84,11.76-1.24,17.62-1.24c5.86,0,11.87,0.41,17.62,1.24c5.78,0.84,11.33,2.12,16.26,3.87
								c4.97,1.77,9.33,4.02,12.65,6.8c3.37,2.83,5.68,6.23,6.47,10.24h2.7c-0.85-4.22-3.3-7.79-6.86-10.76
								c-3.49-2.92-8.08-5.28-13.3-7.13c-5.17-1.83-11-3.16-17.06-4.04C310.09,351.55,303.8,351.13,297.65,351.13"/>
							<path class="st3" d="M301.76,375.58h-8.22c0.08,0.12,0.19,0.23,0.31,0.33c0.12,0.1,0.26,0.18,0.4,0.26
								c0.15,0.08,0.3,0.14,0.46,0.2c0.16,0.06,0.31,0.11,0.47,0.15c0.18,0.05,0.37,0.09,0.57,0.13c0.2,0.04,0.4,0.07,0.61,0.09
								c0.21,0.02,0.42,0.04,0.64,0.05c0.22,0.01,0.43,0.02,0.65,0.02c0.22,0,0.44-0.01,0.65-0.02c0.22-0.01,0.43-0.03,0.64-0.05
								s0.41-0.05,0.61-0.09c0.2-0.04,0.39-0.08,0.57-0.13c0.16-0.04,0.32-0.09,0.47-0.15c0.16-0.06,0.31-0.12,0.46-0.2
								c0.15-0.08,0.28-0.16,0.41-0.26C301.57,375.81,301.68,375.7,301.76,375.58 M297.64,373.03c-0.21,0-0.43,0.01-0.64,0.02
								s-0.42,0.03-0.63,0.05c-0.21,0.02-0.41,0.05-0.6,0.09c-0.19,0.04-0.38,0.08-0.56,0.12c-0.17,0.04-0.34,0.1-0.51,0.16
								c-0.17,0.06-0.34,0.14-0.49,0.22c-0.16,0.08-0.3,0.18-0.42,0.29c-0.12,0.11-0.23,0.23-0.3,0.37h8.34
								c-0.08-0.14-0.18-0.26-0.3-0.37c-0.12-0.11-0.27-0.21-0.42-0.29c-0.16-0.08-0.32-0.16-0.49-0.22
								c-0.17-0.06-0.34-0.12-0.51-0.16c-0.18-0.05-0.37-0.09-0.56-0.12c-0.2-0.04-0.4-0.07-0.6-0.09s-0.42-0.04-0.63-0.05
								C298.08,373.03,297.86,373.03,297.64,373.03"/>
							<path class="st3" d="M304.53,375.58h-2.77c-0.08,0.12-0.19,0.23-0.31,0.33c-0.12,0.1-0.26,0.18-0.41,0.26
								c-0.15,0.08-0.3,0.14-0.46,0.2c-0.16,0.06-0.32,0.11-0.47,0.15c-0.18,0.05-0.37,0.09-0.57,0.13c-0.2,0.04-0.4,0.07-0.61,0.09
								s-0.42,0.04-0.64,0.05c-0.22,0.01-0.43,0.02-0.65,0.02c-0.22,0-0.44-0.01-0.65-0.02c-0.22-0.01-0.43-0.03-0.64-0.05
								c-0.21-0.02-0.41-0.05-0.61-0.09c-0.2-0.04-0.39-0.08-0.57-0.13c-0.15-0.04-0.31-0.09-0.47-0.15
								c-0.16-0.06-0.31-0.12-0.46-0.2c-0.15-0.08-0.28-0.16-0.4-0.26c-0.12-0.1-0.23-0.21-0.31-0.33h-2.78
								c0.08,0.21,0.21,0.42,0.39,0.61c0.17,0.19,0.39,0.38,0.64,0.55c0.26,0.17,0.55,0.33,0.89,0.47c0.34,0.14,0.71,0.27,1.12,0.38
								c0.29,0.08,0.59,0.14,0.9,0.2c0.31,0.06,0.63,0.11,0.95,0.14c0.32,0.04,0.66,0.07,0.99,0.09c0.33,0.02,0.67,0.03,1.01,0.03
								c0.34,0,0.68-0.01,1.01-0.03c0.33-0.02,0.66-0.05,0.99-0.09c0.32-0.04,0.64-0.09,0.95-0.14c0.31-0.06,0.61-0.13,0.89-0.2
								c0.41-0.11,0.79-0.24,1.13-0.38c0.34-0.14,0.63-0.3,0.89-0.47c0.26-0.17,0.47-0.35,0.64-0.55
								C304.32,376,304.45,375.8,304.53,375.58 M297.65,371.82c-0.33,0-0.66,0.01-0.99,0.03c-0.33,0.02-0.65,0.05-0.97,0.08
								c-0.32,0.04-0.63,0.08-0.94,0.14c-0.31,0.06-0.6,0.12-0.89,0.2c-0.43,0.11-0.82,0.24-1.17,0.39
								c-0.35,0.15-0.66,0.31-0.92,0.49c-0.26,0.18-0.48,0.37-0.66,0.57c-0.17,0.2-0.3,0.42-0.38,0.64h2.74
								c0.08-0.14,0.18-0.26,0.3-0.37c0.12-0.11,0.27-0.21,0.42-0.29c0.16-0.08,0.32-0.16,0.49-0.22c0.17-0.06,0.34-0.12,0.51-0.16
								c0.18-0.05,0.37-0.09,0.56-0.12c0.19-0.04,0.4-0.07,0.6-0.09c0.21-0.02,0.42-0.04,0.63-0.05s0.43-0.02,0.64-0.02
								c0.22,0,0.43,0.01,0.65,0.02c0.21,0.01,0.43,0.03,0.63,0.05s0.41,0.05,0.6,0.09c0.2,0.04,0.38,0.08,0.56,0.12
								c0.17,0.04,0.34,0.1,0.51,0.16c0.17,0.06,0.34,0.14,0.49,0.22c0.16,0.08,0.3,0.18,0.42,0.29c0.12,0.11,0.23,0.23,0.3,0.37
								h2.73c-0.08-0.22-0.21-0.44-0.38-0.64c-0.17-0.2-0.39-0.39-0.66-0.57c-0.26-0.18-0.57-0.34-0.92-0.49
								c-0.35-0.15-0.74-0.28-1.16-0.39c-0.28-0.07-0.58-0.14-0.88-0.2c-0.3-0.06-0.62-0.1-0.94-0.14
								c-0.32-0.04-0.64-0.07-0.97-0.08C298.31,371.82,297.98,371.82,297.65,371.82"/>
							<path class="st2" d="M297.64,299.54c-0.26,0-0.52-0.01-0.78-0.02c-0.26-0.01-0.52-0.03-0.77-0.05
								c-0.25-0.02-0.5-0.05-0.74-0.09c-0.24-0.03-0.47-0.08-0.7-0.12c-0.4-0.08-0.76-0.18-1.07-0.3c-0.31-0.11-0.57-0.24-0.78-0.38
								c-0.21-0.14-0.37-0.29-0.47-0.45c-0.1-0.16-0.15-0.33-0.14-0.5c0-0.17,0.05-0.34,0.16-0.49c0.11-0.16,0.27-0.3,0.49-0.44
								c0.21-0.14,0.48-0.26,0.79-0.37c0.31-0.11,0.67-0.21,1.07-0.29c0.22-0.05,0.45-0.09,0.69-0.12c0.24-0.03,0.48-0.06,0.73-0.09
								c0.25-0.02,0.5-0.04,0.76-0.05c0.26-0.01,0.51-0.02,0.77-0.02c0.26,0,0.52,0.01,0.77,0.02c0.26,0.01,0.51,0.03,0.76,0.05
								c0.25,0.02,0.49,0.05,0.73,0.09c0.24,0.03,0.47,0.07,0.69,0.12c0.4,0.08,0.76,0.18,1.07,0.29c0.31,0.11,0.57,0.24,0.79,0.37
								c0.21,0.14,0.38,0.29,0.49,0.44c0.11,0.16,0.16,0.32,0.16,0.5c0.01,0.17-0.04,0.34-0.14,0.5c-0.1,0.16-0.26,0.31-0.47,0.45
								c-0.21,0.14-0.47,0.27-0.78,0.38c-0.31,0.11-0.67,0.21-1.07,0.3c-0.22,0.05-0.46,0.09-0.7,0.12
								c-0.24,0.03-0.49,0.06-0.74,0.09c-0.25,0.02-0.51,0.04-0.77,0.05C298.17,299.53,297.91,299.54,297.64,299.54 M379.65,283.62
								h-39.39l1.34,8.14h-87.92l1.34-8.14h-39.39L208,307.66h179.27L379.65,283.62"/>
							<path class="st3" d="M381.42,282.95h-41.27l0.11,0.67h39.39l7.63,24.04H208l7.63-24.04h39.39l0.11-0.67h-41.27l-0.16,0.5
								l-8.13,25.01h49.59c0-0.01-0.01-0.01-0.01-0.02c0-0.01-0.01-0.01-0.01-0.02c0-0.01-0.01-0.01-0.01-0.02
								c0-0.01-0.01-0.01-0.01-0.02l-0.39-0.53l85.84-0.03l-0.39,0.53c-0.01,0.01-0.01,0.02-0.02,0.03s-0.01,0.02-0.02,0.03
								s-0.01,0.02-0.02,0.03c-0.01,0.01-0.01,0.02-0.02,0.03h49.61l-8.13-25.01L381.42,282.95"/>
							<polyline class="st2" points="338.27,283.62 257.01,283.62 255.84,291.05 339.44,291.05 338.27,283.62 							"/>
							<path class="st3" d="M255.84,291.05l1.17-7.43h81.26l1.17,7.43H255.84 M340.15,282.95h-85.01l-0.11,0.67l-1.34,8.14h87.92
								l-1.34-8.14L340.15,282.95"/>
							<path class="st2" d="M337.64,308.64l-80.01,0.03c1.29,1.5,3.21,2.87,5.67,4.1c2.48,1.24,5.51,2.32,8.98,3.21
								c3.49,0.9,7.42,1.6,11.68,2.08c4.27,0.48,8.86,0.74,13.66,0.74h0.05c4.8,0,9.39-0.26,13.67-0.74
								c4.26-0.48,8.19-1.19,11.68-2.09c3.47-0.89,6.49-1.98,8.97-3.22C334.45,311.52,336.37,310.14,337.64,308.64"/>
							<path class="st3" d="M297.63,318.79c-4.79,0-9.38-0.26-13.66-0.74c-4.26-0.48-8.19-1.18-11.68-2.08
								c-3.47-0.89-6.5-1.97-8.98-3.21c-2.46-1.23-4.38-2.6-5.67-4.1l80.01-0.03c-1.28,1.5-3.19,2.88-5.65,4.11
								c-2.48,1.24-5.5,2.32-8.97,3.22c-3.49,0.9-7.42,1.61-11.68,2.09c-4.28,0.48-8.87,0.74-13.67,0.74H297.63 M340.56,307.83
								l-85.84,0.03l0.39,0.53c0,0.01,0.01,0.01,0.01,0.02c0,0.01,0.01,0.01,0.01,0.02c0,0.01,0.01,0.01,0.01,0.02
								c0,0.01,0.01,0.01,0.01,0.02c1.24,1.65,3.19,3.16,5.75,4.52c2.58,1.37,5.78,2.56,9.47,3.55c3.72,0.99,7.93,1.78,12.51,2.31
								c4.6,0.54,9.55,0.82,14.73,0.82h0.05c5.17,0,10.12-0.29,14.72-0.82c4.58-0.54,8.78-1.32,12.5-2.31
								c3.69-0.99,6.88-2.18,9.46-3.55c2.56-1.35,4.5-2.87,5.74-4.51c0.01-0.01,0.01-0.02,0.02-0.03c0.01-0.01,0.01-0.02,0.02-0.03
								s0.01-0.02,0.02-0.03s0.01-0.02,0.02-0.03L340.56,307.83"/>
							<path class="st3" d="M297.64,296.49c-0.17,0-0.34,0-0.5,0.01c-0.17,0.01-0.33,0.02-0.49,0.03c-0.16,0.01-0.32,0.03-0.47,0.05
								c-0.15,0.02-0.3,0.05-0.44,0.08c-0.17,0.03-0.34,0.08-0.51,0.13c-0.17,0.05-0.33,0.12-0.47,0.2
								c-0.14,0.08-0.26,0.17-0.34,0.27c-0.08,0.11-0.13,0.23-0.13,0.36c-0.01,0.14,0.04,0.26,0.12,0.37
								c0.08,0.11,0.2,0.2,0.34,0.28c0.14,0.08,0.3,0.14,0.47,0.2c0.17,0.05,0.34,0.1,0.51,0.13c0.14,0.03,0.29,0.06,0.44,0.08
								c0.15,0.02,0.31,0.04,0.47,0.06c0.16,0.01,0.33,0.03,0.5,0.03c0.17,0.01,0.34,0.01,0.51,0.01c0.17,0,0.34,0,0.51-0.01
								c0.17-0.01,0.33-0.02,0.5-0.03s0.32-0.03,0.47-0.06c0.15-0.02,0.3-0.05,0.44-0.08c0.17-0.03,0.34-0.08,0.51-0.13
								c0.17-0.05,0.33-0.12,0.47-0.2c0.14-0.08,0.26-0.17,0.34-0.28c0.08-0.11,0.12-0.23,0.12-0.36l-0.01,0l0.01-0.01
								c0-0.14-0.04-0.26-0.13-0.36c-0.08-0.11-0.2-0.2-0.34-0.27c-0.14-0.08-0.3-0.14-0.47-0.2c-0.17-0.05-0.34-0.1-0.51-0.13
								c-0.14-0.03-0.29-0.05-0.44-0.08s-0.31-0.04-0.47-0.05c-0.16-0.01-0.33-0.03-0.49-0.03
								C297.98,296.49,297.81,296.49,297.64,296.49"/>
							<path class="st3" d="M297.64,298.78c-0.17,0-0.34,0-0.51-0.01c-0.17-0.01-0.33-0.02-0.5-0.03c-0.16-0.01-0.32-0.03-0.47-0.06
								c-0.15-0.02-0.3-0.05-0.44-0.08c-0.17-0.03-0.34-0.08-0.51-0.13c-0.17-0.05-0.33-0.12-0.47-0.2
								c-0.14-0.08-0.26-0.17-0.34-0.28c-0.08-0.11-0.12-0.23-0.12-0.37c0-0.14,0.04-0.26,0.13-0.36c0.08-0.11,0.2-0.2,0.34-0.27
								c0.14-0.08,0.3-0.14,0.47-0.2c0.17-0.05,0.34-0.1,0.51-0.13c0.14-0.03,0.29-0.05,0.44-0.08c0.15-0.02,0.31-0.04,0.47-0.05
								c0.16-0.01,0.32-0.03,0.49-0.03c0.17-0.01,0.33-0.01,0.5-0.01c0.17,0,0.34,0,0.5,0.01c0.17,0.01,0.33,0.02,0.49,0.03
								c0.16,0.01,0.32,0.03,0.47,0.05s0.3,0.05,0.44,0.08c0.17,0.03,0.34,0.08,0.51,0.13c0.17,0.05,0.33,0.12,0.47,0.2
								c0.14,0.08,0.26,0.17,0.34,0.27c0.08,0.11,0.13,0.23,0.13,0.36l-0.01,0.01l0.01,0c0.01,0.14-0.04,0.26-0.12,0.36
								c-0.08,0.11-0.2,0.2-0.34,0.28c-0.14,0.08-0.3,0.14-0.47,0.2c-0.17,0.05-0.34,0.1-0.51,0.13c-0.14,0.03-0.29,0.06-0.44,0.08
								c-0.15,0.02-0.31,0.04-0.47,0.06s-0.33,0.03-0.5,0.03C297.98,298.78,297.81,298.78,297.64,298.78 M297.64,295.75
								c-0.26,0-0.52,0.01-0.77,0.02c-0.26,0.01-0.51,0.03-0.76,0.05c-0.25,0.02-0.49,0.05-0.73,0.09
								c-0.24,0.03-0.47,0.07-0.69,0.12c-0.4,0.08-0.76,0.18-1.07,0.29c-0.31,0.11-0.57,0.24-0.79,0.37
								c-0.21,0.14-0.38,0.28-0.49,0.44c-0.11,0.16-0.16,0.32-0.16,0.49c-0.01,0.17,0.04,0.34,0.14,0.5
								c0.1,0.16,0.26,0.31,0.47,0.45c0.21,0.14,0.47,0.27,0.78,0.38c0.31,0.11,0.67,0.21,1.07,0.3c0.22,0.05,0.46,0.09,0.7,0.12
								c0.24,0.03,0.49,0.06,0.74,0.09c0.25,0.02,0.51,0.04,0.77,0.05c0.26,0.01,0.52,0.02,0.78,0.02c0.26,0,0.53-0.01,0.79-0.02
								c0.26-0.01,0.52-0.03,0.77-0.05c0.25-0.02,0.5-0.05,0.74-0.09c0.24-0.03,0.47-0.08,0.7-0.12c0.4-0.08,0.76-0.18,1.07-0.3
								c0.31-0.11,0.57-0.24,0.78-0.38c0.21-0.14,0.37-0.29,0.47-0.45c0.1-0.16,0.15-0.33,0.14-0.5c0-0.17-0.05-0.34-0.16-0.5
								c-0.11-0.16-0.27-0.31-0.49-0.44c-0.21-0.14-0.48-0.26-0.79-0.37c-0.31-0.11-0.67-0.21-1.07-0.29
								c-0.22-0.05-0.45-0.09-0.69-0.12c-0.24-0.03-0.48-0.06-0.73-0.09c-0.25-0.02-0.5-0.04-0.76-0.05
								C298.16,295.76,297.9,295.75,297.64,295.75"/>
							<path class="st2" d="M297.64,517.73c-0.47,0-0.94-0.02-1.4-0.06c-0.47-0.04-0.93-0.09-1.38-0.17
								c-0.45-0.08-0.9-0.17-1.33-0.28c-0.43-0.11-0.85-0.24-1.25-0.39c-0.72-0.27-1.36-0.59-1.91-0.96
								c-0.55-0.37-1.02-0.78-1.39-1.22c-0.37-0.45-0.65-0.93-0.83-1.44c-0.18-0.51-0.26-1.05-0.24-1.6c0-0.55,0.1-1.07,0.3-1.57
								c0.2-0.5,0.49-0.97,0.88-1.4c0.38-0.43,0.85-0.83,1.41-1.18c0.55-0.35,1.19-0.66,1.9-0.92c0.39-0.14,0.81-0.27,1.23-0.38
								c0.42-0.11,0.86-0.2,1.3-0.27c0.44-0.07,0.89-0.13,1.35-0.16c0.46-0.04,0.92-0.05,1.37-0.05s0.92,0.02,1.37,0.05
								c0.46,0.04,0.91,0.09,1.35,0.16c0.44,0.07,0.88,0.16,1.3,0.27c0.42,0.11,0.83,0.23,1.23,0.38c0.71,0.26,1.35,0.57,1.9,0.92
								c0.55,0.35,1.03,0.75,1.41,1.18c0.38,0.43,0.68,0.91,0.88,1.41c0.2,0.5,0.3,1.03,0.3,1.59c0.02,0.55-0.06,1.09-0.24,1.6
								c-0.18,0.51-0.46,0.99-0.83,1.43c-0.37,0.45-0.84,0.85-1.39,1.22c-0.55,0.37-1.19,0.69-1.91,0.96
								c-0.4,0.15-0.82,0.28-1.25,0.39c-0.43,0.11-0.87,0.21-1.33,0.28c-0.45,0.08-0.91,0.13-1.38,0.17
								C298.59,517.71,298.12,517.73,297.64,517.73 M443.54,484.92H151.73l-26.04,82.04h82.59l5.38-32.59h167.96l5.38,32.59h82.59
								L443.54,484.92"/>
							<path class="st3" d="M125.69,566.97l26.04-82.04h291.81l26.04,82.04H387l0.49,2.96H207.79l0.49-2.96H125.69 M446.4,482.81
								h-80.11c0.01,0.02,0.02,0.03,0.03,0.05s0.02,0.03,0.03,0.05s0.02,0.03,0.03,0.05c0.01,0.02,0.02,0.03,0.03,0.05l0.96,1.38
								l-139.49,0.08l0.97-1.39c0.02-0.02,0.03-0.05,0.05-0.07c0.02-0.02,0.03-0.05,0.05-0.07s0.03-0.05,0.05-0.07
								s0.03-0.05,0.05-0.07h-80.17l-27.12,83.41l-0.96,2.96l-0.24,0.75h354.16l-0.24-0.75l-0.96-2.96L446.4,482.81"/>
							<polyline class="st2" points="378.11,536.99 217.16,536.99 212.45,566.97 382.83,566.97 378.11,536.99 							"/>
							<path class="st3" d="M212.45,566.97l4.71-29.98h160.95l4.71,29.98H212.45 M381.62,534.37H213.66l-5.38,32.59l-0.49,2.96
								h179.69l-0.49-2.96L381.62,534.37"/>
							<path class="st2" d="M297.68,458.2h-0.08c-7.08,0-13.88,0.57-20.28,1.63c-6.43,1.07-12.49,2.65-18.02,4.69
								c-5.58,2.06-10.65,4.59-15.04,7.55c-4.45,3-8.22,6.45-11.14,10.3l129.04-0.08c-2.92-3.84-6.7-7.29-11.16-10.28
								c-4.4-2.95-9.47-5.48-15.05-7.53c-5.53-2.03-11.58-3.61-18.01-4.67C311.55,458.75,304.74,458.2,297.68,458.2"/>
							<path class="st3" d="M233.12,482.37c2.91-3.85,6.69-7.3,11.14-10.3c4.39-2.96,9.46-5.49,15.04-7.55
								c5.53-2.04,11.58-3.62,18.02-4.69c6.4-1.06,13.21-1.63,20.28-1.63h0.08c7.07,0,13.87,0.56,20.27,1.62
								c6.43,1.06,12.48,2.64,18.01,4.67c5.58,2.05,10.65,4.58,15.05,7.53c4.45,2.99,8.23,6.44,11.16,10.28L233.12,482.37
								 M297.68,456.32h-0.08c-7.58,0-14.86,0.62-21.71,1.78c-6.88,1.17-13.34,2.9-19.23,5.13c-5.95,2.25-11.33,5.03-15.96,8.27
								c-4.7,3.29-8.66,7.08-11.65,11.31c-0.02,0.02-0.03,0.05-0.05,0.07s-0.03,0.05-0.05,0.07s-0.03,0.05-0.05,0.07
								c-0.02,0.02-0.03,0.05-0.05,0.07l-0.97,1.39l139.49-0.08l-0.96-1.38c-0.01-0.02-0.02-0.03-0.03-0.05
								c-0.01-0.02-0.02-0.03-0.03-0.05s-0.02-0.03-0.03-0.05s-0.02-0.03-0.03-0.05c-3-4.23-6.95-8.02-11.66-11.32
								c-4.64-3.25-10.03-6.02-15.98-8.28c-5.89-2.23-12.36-3.96-19.25-5.12C312.55,456.94,305.26,456.32,297.68,456.32"/>
							<path class="st3" d="M297.64,507.99c-0.3,0-0.6,0.01-0.89,0.04c-0.3,0.02-0.59,0.06-0.87,0.1c-0.29,0.05-0.57,0.1-0.84,0.17
								c-0.27,0.07-0.53,0.15-0.78,0.24c-0.3,0.11-0.61,0.24-0.91,0.41c-0.3,0.17-0.59,0.38-0.84,0.62
								c-0.25,0.25-0.46,0.53-0.61,0.87c-0.15,0.33-0.24,0.72-0.23,1.15c-0.01,0.44,0.06,0.84,0.2,1.18
								c0.14,0.34,0.35,0.64,0.6,0.89c0.25,0.25,0.53,0.46,0.83,0.64c0.3,0.18,0.61,0.32,0.91,0.43c0.25,0.09,0.52,0.18,0.79,0.25
								c0.28,0.07,0.56,0.13,0.85,0.18c0.29,0.05,0.59,0.08,0.89,0.11c0.3,0.02,0.6,0.04,0.91,0.04s0.61-0.01,0.91-0.04
								c0.3-0.02,0.6-0.06,0.89-0.11c0.29-0.05,0.58-0.11,0.85-0.18c0.27-0.07,0.54-0.15,0.79-0.25c0.3-0.11,0.62-0.25,0.92-0.43
								c0.3-0.18,0.59-0.39,0.84-0.64c0.25-0.25,0.46-0.54,0.6-0.88c0.14-0.34,0.22-0.72,0.2-1.16l-0.01-0.02l0.01-0.02
								c0-0.44-0.08-0.82-0.23-1.15c-0.15-0.33-0.36-0.62-0.61-0.87c-0.25-0.25-0.54-0.45-0.84-0.62c-0.3-0.17-0.61-0.31-0.91-0.41
								c-0.25-0.09-0.51-0.17-0.78-0.24c-0.27-0.07-0.55-0.13-0.84-0.17c-0.29-0.05-0.58-0.08-0.88-0.1
								C298.25,508,297.95,507.99,297.64,507.99"/>
							<path class="st3" d="M297.64,515.31c-0.3,0-0.61-0.01-0.91-0.04c-0.3-0.02-0.6-0.06-0.89-0.11
								c-0.29-0.05-0.58-0.11-0.85-0.18c-0.27-0.07-0.54-0.15-0.79-0.25c-0.3-0.11-0.61-0.25-0.91-0.43
								c-0.3-0.18-0.59-0.39-0.83-0.64c-0.25-0.25-0.45-0.55-0.6-0.89c-0.14-0.34-0.22-0.73-0.2-1.18c0-0.44,0.08-0.82,0.23-1.15
								c0.15-0.33,0.36-0.62,0.61-0.87c0.25-0.25,0.54-0.45,0.84-0.62c0.3-0.17,0.61-0.31,0.91-0.41c0.25-0.09,0.51-0.17,0.78-0.24
								c0.27-0.07,0.55-0.13,0.84-0.17c0.29-0.05,0.58-0.08,0.87-0.1c0.3-0.02,0.59-0.04,0.89-0.04c0.3,0,0.6,0.01,0.9,0.04
								c0.3,0.02,0.59,0.06,0.88,0.1c0.29,0.05,0.57,0.1,0.84,0.17c0.27,0.07,0.53,0.15,0.78,0.24c0.3,0.11,0.61,0.24,0.91,0.41
								c0.3,0.17,0.59,0.38,0.84,0.62c0.25,0.25,0.46,0.53,0.61,0.87c0.15,0.33,0.24,0.72,0.23,1.15l-0.01,0.02l0.01,0.02
								c0.01,0.44-0.06,0.82-0.2,1.16c-0.14,0.34-0.35,0.63-0.6,0.88c-0.25,0.25-0.54,0.46-0.84,0.64c-0.3,0.18-0.62,0.32-0.92,0.43
								c-0.25,0.09-0.52,0.18-0.79,0.25c-0.28,0.07-0.56,0.13-0.85,0.18c-0.29,0.05-0.59,0.08-0.89,0.11
								C298.25,515.29,297.95,515.31,297.64,515.31 M297.65,505.67c-0.46,0-0.92,0.02-1.37,0.05c-0.46,0.04-0.91,0.09-1.35,0.16
								c-0.44,0.07-0.88,0.16-1.3,0.27c-0.42,0.11-0.83,0.23-1.23,0.38c-0.71,0.26-1.35,0.57-1.9,0.92
								c-0.55,0.35-1.03,0.75-1.41,1.18c-0.38,0.43-0.68,0.9-0.88,1.4c-0.2,0.5-0.3,1.03-0.3,1.57c-0.02,0.56,0.06,1.09,0.24,1.6
								c0.18,0.51,0.46,0.99,0.83,1.44c0.37,0.45,0.84,0.86,1.39,1.22c0.55,0.37,1.19,0.69,1.91,0.96c0.4,0.15,0.82,0.28,1.25,0.39
								c0.43,0.11,0.88,0.21,1.33,0.28c0.45,0.08,0.92,0.13,1.38,0.17c0.47,0.04,0.94,0.06,1.4,0.06c0.47,0,0.94-0.02,1.41-0.06
								c0.47-0.04,0.93-0.09,1.38-0.17c0.45-0.08,0.9-0.17,1.33-0.28c0.43-0.11,0.85-0.24,1.25-0.39c0.72-0.27,1.36-0.59,1.91-0.96
								c0.55-0.37,1.02-0.77,1.39-1.22c0.37-0.44,0.65-0.92,0.83-1.43c0.18-0.51,0.26-1.04,0.24-1.6c0-0.55-0.1-1.08-0.3-1.59
								c-0.2-0.5-0.49-0.97-0.88-1.41c-0.38-0.43-0.85-0.83-1.41-1.18c-0.55-0.35-1.19-0.66-1.9-0.92c-0.39-0.14-0.8-0.27-1.23-0.38
								c-0.42-0.11-0.86-0.2-1.3-0.27c-0.44-0.07-0.89-0.13-1.35-0.16C298.57,505.68,298.11,505.67,297.65,505.67"/>
							<polyline class="st3" points="479.71,374.35 478.49,374.35 353.34,374.35 350.65,374.35 304.55,374.35 301.82,374.35 
								293.48,374.35 290.73,374.35 244.64,374.35 241.95,374.35 116.78,374.35 115.59,374.35 115.27,374.97 114.95,375.58 
								116.14,375.58 241.83,375.58 244.54,375.58 290.76,375.58 293.54,375.58 301.76,375.58 304.53,375.58 350.75,375.58 
								353.46,375.58 479.13,375.58 480.35,375.58 479.71,374.35 							"/>
						</g>
					</g>
				</g>
			</g>
		</g>
	</g>
</g>
</svg>
